<?xml version="1.0" standalone="no"?>
<!DOCTYPE svg PUBLIC "-//W3C//DTD SVG 20010904//EN"
 "http://www.w3.org/TR/2001/REC-SVG-20010904/DTD/svg10.dtd">
<svg version="1.0" xmlns="http://www.w3.org/2000/svg"
 width="256.000000pt" height="256.000000pt" viewBox="0 0 256.000000 256.000000"
 preserveAspectRatio="xMidYMid meet">
<metadata>
Created by potrace 1.10, written by Peter Selinger 2001-2011
</metadata>
<g transform="translate(0.000000,256.000000) scale(0.100000,-0.100000)"
fill="#000000" stroke="none">
<path d="M1601 2189 c-25 -5 -48 -14 -52 -20 -36 -58 -69 -369 -69 -643 0 -82
3 -101 18 -112 9 -7 22 -13 27 -14 6 0 5 3 -1 8 -12 7 -2 385 12 487 4 28 8
64 10 80 7 61 17 100 31 116 9 11 12 26 7 44 -5 18 -2 30 7 36 24 15 32 10 25
-18 -4 -16 -11 -48 -16 -73 -5 -25 -12 -55 -15 -67 -4 -17 -2 -21 9 -17 15 6
15 -30 2 -121 -11 -71 -25 -248 -28 -347 -2 -58 -6 -104 -10 -101 -5 2 -8 0
-8 -6 0 -5 -3 -16 -6 -25 -3 -9 -1 -16 5 -16 6 0 11 7 11 15 0 21 13 19 35 -5
24 -26 13 -50 -24 -50 -16 0 -32 4 -35 8 -3 5 -76 12 -163 15 -175 6 -428 33
-455 47 -10 6 -27 10 -38 10 -27 0 -26 28 4 59 20 22 25 40 30 111 9 114 17
194 22 201 2 4 6 24 10 45 3 22 10 59 16 84 9 39 15 83 17 128 1 6 8 12 16 12
13 0 15 -10 10 -62 -4 -35 -11 -85 -16 -111 -5 -26 -8 -71 -8 -100 1 -29 4
-41 6 -27 3 14 9 29 14 34 10 11 2 -115 -11 -159 -4 -16 -11 -47 -15 -68 -3
-21 -10 -35 -14 -32 -13 7 -21 -20 -21 -67 0 -27 4 -38 13 -35 6 2 11 10 9 16
-1 7 6 11 15 9 15 -3 18 6 21 60 2 34 7 62 12 62 5 0 7 -7 4 -15 -4 -8 -2 -15
4 -15 20 0 42 472 24 506 -11 21 -41 24 -77 9 -29 -13 -35 -25 -35 -81 0 -28
-9 -80 -20 -115 -12 -38 -23 -118 -29 -199 -9 -140 -16 -166 -52 -212 -22 -27
-22 -27 -4 -75 22 -58 22 -108 -5 -361 -26 -239 -26 -268 0 -282 61 -33 110
21 110 121 0 45 17 235 35 389 1 14 8 38 14 54 9 22 16 27 34 22 28 -7 225
-26 341 -32 50 -3 96 -9 104 -13 12 -7 14 -78 13 -447 -1 -427 3 -549 18 -573
8 -12 76 -6 101 9 11 7 13 95 11 463 -3 476 1 545 28 555 39 14 42 68 6 100
-24 21 -25 25 -25 164 0 143 15 310 30 338 12 23 24 296 14 302 -5 3 -29 1
-53 -3z m-663 -809 c46 -11 48 -15 19 -49 -23 -28 -27 -45 -42 -175 -2 -17 -6
-44 -8 -61 -9 -58 -21 -200 -18 -217 3 -25 -18 -98 -29 -98 -21 0 -24 89 -5
200 9 57 20 232 20 323 -1 84 2 97 15 91 8 -3 30 -10 48 -14z m662 -62 c0 -5
-5 -19 -11 -30 -14 -26 -41 -200 -39 -253 4 -136 13 -509 14 -610 1 -115 0
-120 -20 -123 -12 -2 -24 3 -27 11 -4 12 -3 453 3 732 0 17 -3 76 -7 131 -6
75 -13 107 -25 121 -10 11 -18 22 -18 26 0 3 29 5 65 5 36 -1 65 -5 65 -10z"/>
<path d="M1024 1452 c4 -7 18 -12 31 -12 13 0 34 -4 48 -9 24 -9 78 -15 243
-27 64 -5 93 -3 98 5 5 8 -7 11 -41 11 -69 1 -174 12 -347 37 -28 4 -37 3 -32
-5z"/>
</g>
</svg>
